<?xml version="1.0" encoding="utf-8"?>
<!-- Generator: Adobe Illustrator 24.0.1, SVG Export Plug-In . SVG Version: 6.00 Build 0)  -->
<svg version="1.1" xmlns="http://www.w3.org/2000/svg" xmlns:xlink="http://www.w3.org/1999/xlink" x="0px" y="0px"
	 viewBox="0 0 512 512" style="enable-background:new 0 0 512 512;" xml:space="preserve">
<style type="text/css">
	.st0{fill:#EF4444;}
	.st1{fill:#FFFFFF;}
	.st2{display:none;}
	.st3{display:inline;}
	.st4{fill:#22C55E;}
</style>
<g id="Capa_1">
	<g>
		<circle class="st0" cx="256" cy="256" r="224"/>
	</g>
	<g>
		<path class="st1" d="M416,222.7v14.15H222.97c3.56-8.74,5.52-18.29,5.53-28.29h173.36C409.64,208.56,416,214.92,416,222.7z"/>
		<path class="st1" d="M207.75,260.42c-13.95,14.71-33.77,23.9-55.75,23.9h-0.01v60.96c0,7.78,6.36,14.15,14.14,14.15h235.73
			c7.78,0,14.14-6.37,14.14-14.15v-84.86H207.75z M387.71,333.94c0,3.67-2.96,6.63-6.62,6.63h-24.47c-3.67,0-6.62-2.96-6.62-6.63
			v-10.32c0-3.67,2.95-6.63,6.62-6.63h24.47c3.66,0,6.62,2.96,6.62,6.63V333.94z"/>
	</g>
	<path class="st1" d="M192.58,169.14c-22.09-22.09-57.92-22.09-80.01,0c-22.09,22.09-22.09,57.92,0,80.01
		c22.09,22.09,57.92,22.09,80.01,0C214.67,227.06,214.67,191.23,192.58,169.14z M175.2,220.46c3.13,3.12,3.13,8.19,0,11.31
		c-3.12,3.13-8.19,3.13-11.31,0l-11.32-11.31l-11.31,11.31c-3.12,3.13-8.19,3.13-11.31,0c-3.13-3.12-3.13-8.19,0-11.31l11.31-11.31
		l-11.31-11.32c-3.13-3.12-3.13-8.19,0-11.31c3.12-3.13,8.19-3.13,11.31,0l11.31,11.31l11.32-11.31c3.12-3.13,8.19-3.13,11.31,0
		c3.13,3.12,3.13,8.19,0,11.31l-11.31,11.32L175.2,220.46z"/>
</g>
<g id="Capa_1_copia" class="st2">
	<g class="st3">
		<circle class="st4" cx="256" cy="256" r="224"/>
	</g>
	<g class="st3">
		<g>
			<path class="st1" d="M416,222.7v14.15H222.97c3.56-8.74,5.52-18.29,5.53-28.29h173.36C409.64,208.56,416,214.92,416,222.7z"/>
			<path class="st1" d="M207.75,260.42c-13.95,14.71-33.77,23.9-55.75,23.9h-0.01v60.96c0,7.78,6.36,14.15,14.14,14.15h235.73
				c7.78,0,14.14-6.37,14.14-14.15v-84.86H207.75z M387.71,333.94c0,3.67-2.96,6.63-6.62,6.63h-24.47c-3.67,0-6.62-2.96-6.62-6.63
				v-10.32c0-3.67,2.95-6.63,6.62-6.63h24.47c3.66,0,6.62,2.96,6.62,6.63V333.94z"/>
		</g>
		<path class="st1" d="M152.57,152.57c-31.24,0-56.57,25.33-56.57,56.58c0,31.24,25.33,56.57,56.57,56.57
			c31.25,0,56.58-25.33,56.58-56.57C209.15,177.9,183.82,152.57,152.57,152.57z M180.78,197.95l-33.74,33.73
			c-3.1,3.11-8.16,3.09-11.29-0.04l-5.67-5.67l-5.66-5.67c-3.13-3.12-3.15-8.18-0.05-11.28c1.55-1.55,3.58-2.32,5.61-2.32
			c2.05,0,4.11,0.79,5.68,2.36l5.67,5.67l28.11-28.12c3.11-3.1,8.16-3.08,11.29,0.05c1.57,1.57,2.36,3.63,2.36,5.69
			C183.09,194.38,182.32,196.4,180.78,197.95z"/>
	</g>
</g>
</svg>
