<?xml version="1.0" encoding="utf-8"?>
<!-- Generator: Adobe Illustrator 24.0.1, SVG Export Plug-In . SVG Version: 6.00 Build 0)  -->
<svg version="1.1" id="Capa_1" xmlns="http://www.w3.org/2000/svg" xmlns:xlink="http://www.w3.org/1999/xlink" x="0px" y="0px"
	 viewBox="0 0 512 512" style="enable-background:new 0 0 512 512;" xml:space="preserve">
<style type="text/css">
	.st0{fill:#EF4444;}
	.st1{fill:#FFFFFF;}
</style>
<g>
	<circle class="st0" cx="256" cy="256" r="224"/>
</g>
<g>
	<path class="st1" d="M348.24,274.5H240.05c-18.1,0-32.9,14.81-32.9,32.9v83.1h174v-83.1C381.14,289.31,366.34,274.5,348.24,274.5z"
		/>
	<path class="st1" d="M294.14,266.34c28.03,0,50.75-35.41,50.75-63.43c0-28.03-22.72-50.75-50.75-50.75
		c-14.06,0-26.78,5.71-35.97,14.94c0.54,3.57,0.83,7.24,0.83,10.97c0,15.46-4.9,29.78-13.23,41.47
		C252.3,243.21,271.48,266.34,294.14,266.34z"/>
	<path class="st1" d="M227.43,138.07c-22.09-22.09-57.92-22.09-80.01,0c-22.09,22.09-22.09,57.92,0,80.01
		c22.09,22.09,57.92,22.09,80.01,0C249.52,195.99,249.52,160.16,227.43,138.07z M210.05,189.39c3.11,3.11,3.11,8.2,0,11.31
		c-3.11,3.11-8.2,3.11-11.31,0l-11.32-11.31l-11.31,11.31c-3.11,3.11-8.2,3.11-11.31,0c-3.11-3.11-3.11-8.2,0-11.31l11.31-11.31
		l-11.31-11.32c-3.11-3.11-3.11-8.2,0-11.31c3.11-3.11,8.2-3.11,11.31,0l11.31,11.31l11.32-11.31c3.11-3.11,8.2-3.11,11.31,0
		c3.11,3.11,3.11,8.2,0,11.31l-11.31,11.32L210.05,189.39z"/>
</g>
<path class="st1" d="M943.29,84.57c-22.09-22.09-57.91-22.09-80.01,0.01c-22.09,22.09-22.09,57.91,0,80
	c22.1,22.1,57.92,22.1,80.01,0.01C965.38,142.49,965.38,106.66,943.29,84.57z"/>
</svg>
