<?xml version="1.0" encoding="utf-8"?>
<svg viewBox="0 0 512 512" style="enable-background:new 0 0 512 512;" xmlns="http://www.w3.org/2000/svg">
  <defs>
    <style type="text/css">
	.st0{fill:#EF4444;}
	.st1{fill:#FFFFFF;}
</style>
  </defs>
  <g>
    <circle class="st0" cx="256" cy="256" r="224"/>
  </g>
  <path d="M 286.095 331.247 C 286.095 331.247 336.571 381.723 340.198 385.35 C 351.874 397.025 370.791 397.025 382.457 385.35 C 394.132 373.674 394.132 354.756 382.457 343.079 C 378.83 339.454 328.353 288.977 328.353 288.977 L 286.095 331.247 Z" style="fill: rgb(255, 255, 255);"/>
  <path d="M 367.378 214.508 L 331.441 205.526 L 322.459 169.588 L 364.066 127.981 C 340.165 120.38 312.973 126.006 294.009 144.956 C 266.952 172.013 275.608 207.233 302.677 234.29 C 329.734 261.347 364.953 270.014 392.01 242.946 C 410.973 223.984 416.598 196.792 408.985 172.901 L 367.378 214.508 Z" style="fill: rgb(255, 255, 255);"/>
  <polygon points="238.29 220.087 198.996 180.793 187.768 147.112 142.86 124.658 120.406 147.112 142.86 192.021 176.542 203.247 215.836 242.541" style="fill: rgb(255, 255, 255);"/>
  <path d="M 298.68 190.661 C 260.912 228.429 156.816 332.526 152.728 336.613 C 139.571 349.771 139.571 371.091 152.728 384.25 C 165.887 397.407 187.207 397.407 200.365 384.25 C 204.452 380.162 308.549 276.066 346.317 238.298 L 298.68 190.661 Z M 176.542 371.653 C 170.344 371.653 165.314 366.623 165.314 360.426 C 165.314 354.228 170.344 349.199 176.542 349.199 C 182.739 349.199 187.768 354.228 187.768 360.426 C 187.768 366.623 182.739 371.653 176.542 371.653 Z" style="fill: rgb(255, 255, 255);"/>
</svg>