<?xml version="1.0" encoding="utf-8"?>
<!-- Generator: Adobe Illustrator 24.0.1, SVG Export Plug-In . SVG Version: 6.00 Build 0)  -->
<svg version="1.1" xmlns="http://www.w3.org/2000/svg" xmlns:xlink="http://www.w3.org/1999/xlink" x="0px" y="0px"
	 viewBox="0 0 512 512" style="enable-background:new 0 0 512 512;" xml:space="preserve">
<style type="text/css">
	.st0{display:none;}
	.st1{display:inline;}
	.st2{fill:#EF4444;}
	.st3{fill:#FFFFFF;}
	.st4{fill:#22C55E;}
</style>
<g id="Capa_1" class="st0">
	<g class="st1">
		<circle class="st2" cx="256" cy="256" r="224"/>
	</g>
	<g class="st1">
		<g>
			<path class="st3" d="M416,222.7v14.15H222.97c3.56-8.74,5.52-18.29,5.53-28.29h173.36C409.64,208.56,416,214.92,416,222.7z"/>
			<path class="st3" d="M207.75,260.42c-13.95,14.71-33.77,23.9-55.75,23.9h-0.01v60.96c0,7.78,6.36,14.15,14.14,14.15h235.73
				c7.78,0,14.14-6.37,14.14-14.15v-84.86H207.75z M387.71,333.94c0,3.67-2.96,6.63-6.62,6.63h-24.47c-3.67,0-6.62-2.96-6.62-6.63
				v-10.32c0-3.67,2.95-6.63,6.62-6.63h24.47c3.66,0,6.62,2.96,6.62,6.63V333.94z"/>
		</g>
		<path class="st3" d="M192.58,169.14c-22.09-22.09-57.92-22.09-80.01,0c-22.09,22.09-22.09,57.92,0,80.01
			c22.09,22.09,57.92,22.09,80.01,0C214.67,227.06,214.67,191.23,192.58,169.14z M175.2,220.46c3.13,3.12,3.13,8.19,0,11.31
			c-3.12,3.13-8.19,3.13-11.31,0l-11.32-11.31l-11.31,11.31c-3.12,3.13-8.19,3.13-11.31,0c-3.13-3.12-3.13-8.19,0-11.31l11.31-11.31
			l-11.31-11.32c-3.13-3.12-3.13-8.19,0-11.31c3.12-3.13,8.19-3.13,11.31,0l11.31,11.31l11.32-11.31c3.12-3.13,8.19-3.13,11.31,0
			c3.13,3.12,3.13,8.19,0,11.31l-11.31,11.32L175.2,220.46z"/>
	</g>
</g>
<g id="Capa_1_copia">
	<g>
		<circle class="st4" cx="256" cy="256" r="224"/>
	</g>
	<g>
		<path class="st3" d="M246.69,265.41l11.64,9.59l20.2,16.65c3.35,2.76,8.17,2.76,11.52,0l20.2-16.65l11.64-9.59l73.24-60.37H238.28
			c0.01,0.28,0.01,0.55,0.01,0.83c0,15.58-4.69,30.06-12.74,42.12L246.69,265.41z"/>
		<path class="st3" d="M217.09,258.52c-13.82,14.39-33.27,23.35-54.8,23.35v67.94l74.8-74.81L217.09,258.52z"/>
		<path class="st3" d="M290.05,309.15c-3.35,2.76-8.17,2.76-11.52,0l-29.79-24.56l-77.8,77.8c0.84,0.21,1.71,0.31,2.61,0.31h221.48
			c0.9,0,1.77-0.1,2.61-0.31l-77.8-77.8L290.05,309.15z"/>
		<path class="st3" d="M406.23,215.18c-0.06-0.53-0.14-1.06-0.26-1.57L331.49,275l74.8,74.8V216.3
			C406.29,215.92,406.27,215.54,406.23,215.18z"/>
		<path class="st3" d="M202.04,246.11c3.21-3.16,6.04-6.7,8.42-10.56c5.33-8.63,8.41-18.8,8.41-29.68c0-0.28,0-0.55-0.01-0.83
			c-0.44-30.87-25.61-55.74-56.58-55.74c-31.23,0-56.57,25.32-56.57,56.57s25.34,56.57,56.57,56.57h0.01
			C177.79,262.44,191.82,256.21,202.04,246.11z M156.75,228.41c-3.1,3.1-8.16,3.08-11.29-0.04l-5.66-5.68l-5.67-5.67
			c-3.13-3.11-3.14-8.17-0.05-11.28c1.55-1.55,3.59-2.31,5.61-2.31c2.06,0,4.12,0.79,5.68,2.36l5.68,5.66l28.1-28.12
			c3.11-3.09,8.16-3.08,11.29,0.05c1.57,1.57,2.37,3.63,2.37,5.69c0,2.04-0.78,4.05-2.31,5.61l-10.37,10.36l-3.02,3.02l-9.6,9.59
			l-5.22,5.22L156.75,228.41z"/>
	</g>
</g>
</svg>
