<?xml version="1.0" encoding="utf-8"?>
<!-- Generator: Adobe Illustrator 24.0.1, SVG Export Plug-In . SVG Version: 6.00 Build 0)  -->
<svg version="1.1" xmlns="http://www.w3.org/2000/svg" xmlns:xlink="http://www.w3.org/1999/xlink" x="0px" y="0px"
	 viewBox="0 0 512 512" style="enable-background:new 0 0 512 512;" xml:space="preserve">
<style type="text/css">
	.st0{display:none;}
	.st1{display:inline;}
	.st2{fill:#EF4444;}
	.st3{fill:#FFFFFF;}
	.st4{fill:#22C55E;}
</style>
<g id="Capa_1" class="st0">
	<g class="st1">
		<circle class="st2" cx="256" cy="256" r="224"/>
	</g>
	<g class="st1">
		<g>
			<path class="st3" d="M416,222.7v14.15H222.97c3.56-8.74,5.52-18.29,5.53-28.29h173.36C409.64,208.56,416,214.92,416,222.7z"/>
			<path class="st3" d="M207.75,260.42c-13.95,14.71-33.77,23.9-55.75,23.9h-0.01v60.96c0,7.78,6.36,14.15,14.14,14.15h235.73
				c7.78,0,14.14-6.37,14.14-14.15v-84.86H207.75z M387.71,333.94c0,3.67-2.96,6.63-6.62,6.63h-24.47c-3.67,0-6.62-2.96-6.62-6.63
				v-10.32c0-3.67,2.95-6.63,6.62-6.63h24.47c3.66,0,6.62,2.96,6.62,6.63V333.94z"/>
		</g>
		<path class="st3" d="M192.58,169.14c-22.09-22.09-57.92-22.09-80.01,0c-22.09,22.09-22.09,57.92,0,80.01
			c22.09,22.09,57.92,22.09,80.01,0C214.67,227.06,214.67,191.23,192.58,169.14z M175.2,220.46c3.13,3.12,3.13,8.19,0,11.31
			c-3.12,3.13-8.19,3.13-11.31,0l-11.32-11.31l-11.31,11.31c-3.12,3.13-8.19,3.13-11.31,0c-3.13-3.12-3.13-8.19,0-11.31l11.31-11.31
			l-11.31-11.32c-3.13-3.12-3.13-8.19,0-11.31c3.12-3.13,8.19-3.13,11.31,0l11.31,11.31l11.32-11.31c3.12-3.13,8.19-3.13,11.31,0
			c3.13,3.12,3.13,8.19,0,11.31l-11.31,11.32L175.2,220.46z"/>
	</g>
</g>
<g id="Capa_1_copia">
	<g>
		<circle class="st4" cx="256" cy="256" r="224"/>
	</g>
	<g>
		<path class="st3" d="M214.29,230.32c3.83,0,7.57-0.38,11.18-1.11c5.2-1.04,10.13-2.79,14.71-5.16c5.12-2.64,9.79-6.04,13.86-10.06
			c3.21-3.16,6.04-6.7,8.42-10.56c0.47-0.76,0.93-1.54,1.35-2.33c2.51-4.51,4.41-9.39,5.59-14.55c0.97-4.11,1.47-8.4,1.47-12.8
			c0-0.28,0-0.55-0.01-0.83c-0.44-30.87-25.61-55.74-56.58-55.74c-31.23,0-56.57,25.32-56.57,56.57s25.34,56.57,56.57,56.57H214.29z
			 M197.46,196.25l-5.66-5.68l-5.67-5.67c-3.13-3.11-3.14-8.17-0.05-11.28c1.55-1.55,3.59-2.31,5.61-2.31
			c2.06,0,4.12,0.79,5.68,2.36l5.68,5.66l28.1-28.12c3.11-3.09,8.16-3.08,11.29,0.05c1.57,1.57,2.37,3.63,2.37,5.69
			c0,2.04-0.78,4.05-2.31,5.61l-10.37,10.36l-3.02,3.02l-9.6,9.59l-10.76,10.76C205.65,199.39,200.59,199.37,197.46,196.25z"/>
		<path class="st3" d="M344.38,268.15h-12.26v-31.66h-0.09c-1.51-25.96-21.38-46.97-46.82-50.23c-0.75,4.27-1.88,8.41-3.34,12.38
			c20.02,1.73,35.94,17.77,37.47,37.85c0.08,1.04,0.12,2.09,0.12,3.16v28.5h-82.34v-26.1c-4.07,1.36-8.3,2.37-12.66,2.98v23.12
			H212.2c-5.45,0-9.91,4.39-9.91,9.75v107.17c0,5.36,4.46,9.75,9.91,9.75h132.18c5.45,0,9.91-4.39,9.91-9.75V277.9
			C354.29,272.54,349.83,268.15,344.38,268.15z M284.9,334.99v17.61c0,3.57-2.98,6.49-6.61,6.49s-6.61-2.92-6.61-6.49v-17.61
			c-5.83-2.5-9.91-8.21-9.91-14.87c0-8.97,7.39-16.24,16.52-16.24s16.52,7.27,16.52,16.24C294.81,326.78,290.73,332.49,284.9,334.99
			z"/>
	</g>
</g>
</svg>
